<svg width="194" height="32" viewBox="0 0 194 32" fill="none" xmlns="http://www.w3.org/2000/svg">
<g clip-path="url(#clip0_116_23776)">
<path d="M50.5594 23.938C50.5594 26.2996 49.4658 28.2113 46.2511 28.2113H37.9758V3.75763H46.1154C49.3301 3.75763 50.3888 5.67329 50.3888 8.03102V11.6219C50.3888 13.1963 49.7063 15.2477 47.5502 15.7247V15.7945C49.7373 16.2055 50.5594 17.8808 50.5594 19.556V23.9341V23.938ZM42.3849 13.9176H44.095C45.2933 13.9176 46.0107 13.0955 46.0107 11.8313V8.7174C46.0107 8.0349 45.4639 7.45322 44.8473 7.45322H42.3849V13.9176ZM46.0107 19.7305C46.0107 18.4663 45.2933 17.6442 44.095 17.6442H42.3849V24.5196H44.8473C45.4639 24.5196 46.0107 23.938 46.0107 23.2555V19.7344V19.7305Z" fill="white"/>
<path d="M59.2768 3.75763V24.38H63.3795V3.75763H67.7576V24.1396C67.7576 26.3965 66.7998 28.2113 63.7906 28.2113H58.8657C55.8565 28.2113 54.8987 26.4004 54.8987 24.1396V3.75763H59.2768Z" fill="white"/>
<path d="M76.9947 28.2113H72.5817V3.75763H76.9947V28.2113Z" fill="white"/>
<path d="M81.8846 28.2113V3.75763H86.2976V24.4498H91.905V28.2113H81.8846Z" fill="white"/>
<path d="M108.46 20.2075C108.46 25.8846 105.551 28.2113 101.995 28.2113H95.1895V3.75763H101.995C105.551 3.75763 108.46 6.08434 108.46 11.7615V20.2075ZM99.6025 7.51914V24.4498H101.142C103.434 24.4498 104.081 21.9525 104.081 20.1415V11.8313C104.081 10.0204 103.43 7.52302 101.142 7.52302H99.6025V7.51914Z" fill="white"/>
<path d="M120.291 3.75763H124.634L119.403 28.2113H115.506L109.999 3.75763H114.618L117.01 16.1706L117.522 19.11H117.557L118.034 16.1706L120.291 3.75763Z" fill="white"/>
<path d="M131.99 28.2113H127.577V3.75763H131.99V28.2113Z" fill="white"/>
<path d="M140.746 12.1028C140.746 13.2661 141.158 13.6772 142.286 13.7121L144.748 13.8478C147.692 14.0184 148.75 15.6277 148.75 17.9855V24.1396C148.75 26.3965 147.758 28.2113 144.748 28.2113H139.924C136.915 28.2113 135.922 26.4004 135.922 24.1396V21.6772L140.165 20.8202V23.3175C140.165 23.9341 140.642 24.4459 141.192 24.4459H143.314C143.86 24.4459 144.341 23.9341 144.341 23.3175V19.3854C144.341 18.222 144 17.9157 142.837 17.8459L140.374 17.7101C137.435 17.5395 136.372 15.9651 136.372 13.6074V7.82549C136.372 5.56858 137.365 3.75763 140.374 3.75763H144.617C147.626 3.75763 148.619 5.56858 148.619 7.82549V10.0824L144.345 10.9394V8.6476C144.345 8.03102 143.868 7.51914 143.318 7.51914H141.813C141.231 7.51914 140.754 8.03102 140.754 8.6476V12.1028H140.746Z" fill="white"/>
<path d="M157.468 28.2113H153.055V3.75763H157.468V28.2113Z" fill="white"/>
<path d="M175.938 24.1396C175.938 26.3965 174.945 28.2114 171.936 28.2114H166.259C163.25 28.2114 162.257 26.4004 162.257 24.1396V7.8294C162.257 5.57249 163.25 3.76154 166.259 3.76154H171.936C174.945 3.76154 175.938 5.57249 175.938 7.8294V24.1435V24.1396ZM171.525 7.51917H166.635V24.4499H171.525V7.51917Z" fill="white"/>
<path d="M184.283 3.75763L189.619 16.4808H189.654V3.75763H193.896V28.2113H190.682L184.969 14.8715H184.935V28.2113H180.692V3.75763H184.283Z" fill="white"/>
<path d="M28.4363 16C30.0068 14.4799 31.9651 11.9787 31.9651 8.95783C31.9651 6.47601 31.0538 4.12991 29.3863 2.34998L29.3088 2.26854C27.905 0.806592 26.0669 0 24.1396 0H0V11.3543L3.04799 14.4023H20.3122L22.3403 16L20.3122 17.5977H3.04799L0 20.6457V32H24.1396C26.0708 32 27.905 31.1934 29.3049 29.7353L29.3941 29.6384C31.0538 27.8623 31.9651 25.5201 31.9651 23.0383C31.9651 20.0213 30.0068 17.5201 28.4363 15.9961V16ZM22.6505 3.84295H24.1396C25.0121 3.84295 25.8652 4.23073 26.5477 4.94038L26.5865 4.98304C27.5754 6.04169 28.1222 7.4571 28.1222 8.96171C28.1222 10.73 26.6331 12.4828 25.4387 13.557L13.1226 3.84295H22.6428H22.6505ZM4.63791 10.5594L3.84295 9.76442V3.84295H6.92196L15.4416 10.5594H4.63791ZM3.84295 28.1609V22.2395L4.63791 21.4445H15.4416L6.92196 28.1609H3.84295ZM26.5943 27.0131L26.5361 27.0751C25.8614 27.777 25.0121 28.1609 24.1396 28.1609H13.1265L25.4426 18.4508C26.6369 19.525 28.126 21.2778 28.126 23.0461C28.126 24.5507 27.5793 25.9622 26.5982 27.017L26.5943 27.0131Z" fill="#4A3AFF"/>
</g>
<defs>
<clipPath id="clip0_116_23776">
<rect width="193.892" height="32" fill="white"/>
</clipPath>
</defs>
</svg>
