<?xml version="1.0" encoding="UTF-8"?><svg id="Layer_2" xmlns="http://www.w3.org/2000/svg" viewBox="0 0 200 200.23"><defs><style>.cls-1{fill:#4a3aff;stroke-width:0px;}</style></defs><g id="Layer_1-2"><path class="cls-1" d="m177.91,100.11c9.84-9.52,22.09-25.17,22.09-44.05,0-15.53-5.71-30.2-16.13-41.35l-.49-.52c-8.79-9.15-20.27-14.2-32.35-14.2H0v71.05l19.06,19.06h108.03l12.69,10-12.69,10.01H19.06L0,129.18v71.05h151.03c12.07,0,23.56-5.04,32.32-14.17l.57-.6c10.37-11.1,16.09-25.77,16.09-41.3,0-18.88-12.25-34.53-22.09-44.05Zm-36.21-76.08h9.33c5.46,0,10.79,2.42,15.07,6.87l.25.27c6.2,6.63,9.61,15.47,9.61,24.89,0,11.06-9.31,22.02-16.79,28.74L82.13,24.04h59.58ZM29.02,66.07l-4.98-4.98V24.04h19.27l53.3,42.03H29.02Zm-4.98,110.12v-37.05l4.98-4.98h67.59l-53.3,42.03h-19.27Zm142.36-7.19l-.36.38c-4.21,4.39-9.54,6.8-15.01,6.8h-68.9l77.05-60.77c7.48,6.73,16.79,17.68,16.79,28.74,0,9.42-3.41,18.26-9.56,24.84Z"/></g></svg>