<?xml version="1.0" encoding="UTF-8"?><svg id="Layer_2" xmlns="http://www.w3.org/2000/svg" viewBox="0 0 500 82.52"><defs><style>.cls-1,.cls-2{stroke-width:0px;}.cls-2{fill:#4a3aff;}</style></defs><g id="Layer_1-2"><path class="cls-1" d="m130.38,61.73c0,6.09-2.82,11.02-11.11,11.02h-21.34V9.69h20.99c8.29,0,11.02,4.94,11.02,11.02v9.26c0,4.06-1.76,9.35-7.32,10.58v.18c5.64,1.06,7.76,5.38,7.76,9.7v11.29Zm-21.08-25.84h4.41c3.09,0,4.94-2.12,4.94-5.38v-8.03c0-1.76-1.41-3.26-3-3.26h-6.35v16.67Zm9.35,14.99c0-3.26-1.85-5.38-4.94-5.38h-4.41v17.73h6.35c1.59,0,3-1.5,3-3.26v-9.08Z"/><path class="cls-1" d="m152.86,9.69v53.18h10.58V9.69h11.29v52.56c0,5.82-2.47,10.5-10.23,10.5h-12.7c-7.76,0-10.23-4.67-10.23-10.5V9.69h11.29Z"/><path class="cls-1" d="m198.55,72.75h-11.38V9.69h11.38v63.06Z"/><path class="cls-1" d="m211.16,72.75V9.69h11.38v53.36h14.46v9.7h-25.84Z"/><path class="cls-1" d="m279.69,52.11c0,14.64-7.5,20.64-16.67,20.64h-17.55V9.69h17.55c9.17,0,16.67,6,16.67,20.64v21.78Zm-22.84-32.72v43.66h3.97c5.91,0,7.58-6.44,7.58-11.11v-21.43c0-4.67-1.68-11.11-7.58-11.11h-3.97Z"/><path class="cls-2" d="m310.2,9.69h11.2l-13.49,63.06h-10.05l-14.2-63.06h11.91l6.17,32.01,1.32,7.58h.09l1.23-7.58,5.82-32.01Z"/><path class="cls-2" d="m340.37,72.75h-11.38V9.69h11.38v63.06Z"/><path class="cls-2" d="m362.95,31.21c0,3,1.06,4.06,3.97,4.15l6.35.35c7.59.44,10.32,4.59,10.32,10.67v15.87c0,5.82-2.56,10.5-10.32,10.5h-12.44c-7.76,0-10.32-4.67-10.32-10.5v-6.35l10.94-2.21v6.44c0,1.59,1.23,2.91,2.65,2.91h5.47c1.41,0,2.65-1.32,2.65-2.91v-10.14c0-3-.88-3.79-3.88-3.97l-6.35-.35c-7.58-.44-10.32-4.5-10.32-10.58v-14.91c0-5.82,2.56-10.49,10.32-10.49h10.94c7.76,0,10.32,4.67,10.32,10.49v5.82l-11.02,2.21v-5.91c0-1.59-1.23-2.91-2.65-2.91h-3.88c-1.5,0-2.73,1.32-2.73,2.91v8.91Z"/><path class="cls-2" d="m406.07,72.75h-11.38V9.69h11.38v63.06Z"/><path class="cls-2" d="m453.7,62.25c0,5.82-2.56,10.5-10.32,10.5h-14.64c-7.76,0-10.32-4.67-10.32-10.5V20.19c0-5.82,2.56-10.49,10.32-10.49h14.64c7.76,0,10.32,4.67,10.32,10.49v42.07Zm-11.38-42.86h-12.61v43.66h12.61V19.39Z"/><path class="cls-2" d="m475.22,9.69l13.76,32.81h.09V9.69h10.94v63.06h-8.29l-14.73-34.4h-.09v34.4h-10.94V9.69h9.26Z"/><path class="cls-2" d="m73.33,41.26c4.05-3.92,9.1-10.37,9.1-18.16,0-6.4-2.35-12.45-6.65-17.04l-.2-.21c-3.62-3.77-8.36-5.85-13.33-5.85H0v29.28l7.86,7.86h44.52l5.23,4.12-5.23,4.12H7.86l-7.86,7.86v29.28h62.25c4.98,0,9.71-2.08,13.32-5.84l.23-.25c4.28-4.58,6.63-10.62,6.63-17.02,0-7.78-5.05-14.23-9.1-18.16Zm-14.92-31.35h3.84c2.25,0,4.45,1,6.21,2.83l.1.11c2.55,2.73,3.96,6.38,3.96,10.26,0,4.56-3.84,9.08-6.92,11.85l-31.76-25.05h24.55ZM11.96,27.23l-2.05-2.05v-15.27h7.94l21.97,17.32H11.96Zm-2.05,45.39v-15.27l2.05-2.05h27.86l-21.97,17.32h-7.94Zm58.67-2.96l-.15.16c-1.74,1.81-3.93,2.8-6.18,2.8h-28.4l31.76-25.04c3.08,2.77,6.92,7.29,6.92,11.85,0,3.88-1.41,7.52-3.94,10.24Z"/></g></svg>